<mxfile host="app.diagrams.net" agent="Mozilla/5.0 (Windows NT 10.0; Win64; x64) AppleWebKit/537.36 (KHTML, like Gecko) Chrome/129.0.0.0 Safari/537.36" version="24.7.17">
  <diagram name="Page-1" id="z-N5qQ04kUsduJC2R8lW">
    <mxGraphModel dx="3686" dy="1491" grid="1" gridSize="10" guides="1" tooltips="1" connect="1" arrows="1" fold="1" page="1" pageScale="1" pageWidth="827" pageHeight="1169" math="0" shadow="0">
      <root>
        <mxCell id="0" />
        <mxCell id="1" parent="0" />
        <mxCell id="bI6_HFmCK03Pa5-VsFxt-7" value="&lt;b style=&quot;&quot;&gt;Project&lt;/b&gt;" style="swimlane;childLayout=stackLayout;horizontal=1;startSize=41;horizontalStack=0;rounded=1;fontSize=14;fontStyle=0;strokeWidth=2;resizeParent=0;resizeLast=1;shadow=0;dashed=0;align=center;arcSize=4;whiteSpace=wrap;html=1;" vertex="1" parent="1">
          <mxGeometry x="300" y="443.5" width="160" height="151" as="geometry" />
        </mxCell>
        <mxCell id="bI6_HFmCK03Pa5-VsFxt-8" value="&lt;b&gt;project_id&lt;span style=&quot;white-space: pre;&quot;&gt;&#x9;&lt;/span&gt;&lt;i&gt;integer(10)&lt;/i&gt;&lt;/b&gt;&lt;div&gt;title&lt;span style=&quot;white-space: pre;&quot;&gt;&#x9;&lt;/span&gt;&lt;span style=&quot;white-space: pre;&quot;&gt;&#x9;&lt;/span&gt;&lt;span style=&quot;white-space: pre;&quot;&gt;&#x9;&lt;/span&gt;&lt;i&gt;varchar(255)&lt;/i&gt;&lt;/div&gt;&lt;div&gt;description&lt;span style=&quot;white-space: pre;&quot;&gt;&#x9;&lt;/span&gt;text&lt;/div&gt;&lt;div&gt;start_date&lt;span style=&quot;white-space: pre;&quot;&gt;&#x9;&lt;/span&gt;&lt;i&gt;date&lt;/i&gt;&lt;/div&gt;&lt;div&gt;&lt;i&gt;end_date&lt;/i&gt;&lt;span style=&quot;font-style: italic; white-space: pre;&quot;&gt;&#x9;&lt;/span&gt;&lt;span style=&quot;font-style: italic; white-space: pre;&quot;&gt;&#x9;&lt;/span&gt;&lt;i&gt;date&lt;/i&gt;&lt;/div&gt;&lt;div&gt;project_link&lt;span style=&quot;white-space: pre;&quot;&gt;&#x9;&lt;/span&gt;&lt;i&gt;varchar(255)&lt;/i&gt;&lt;/div&gt;" style="align=left;strokeColor=none;fillColor=none;spacingLeft=4;fontSize=12;verticalAlign=top;resizable=0;rotatable=0;part=1;html=1;" vertex="1" parent="bI6_HFmCK03Pa5-VsFxt-7">
          <mxGeometry y="41" width="160" height="110" as="geometry" />
        </mxCell>
        <mxCell id="bI6_HFmCK03Pa5-VsFxt-9" value="&lt;b&gt;Skill&lt;/b&gt;" style="swimlane;childLayout=stackLayout;horizontal=1;startSize=41;horizontalStack=0;rounded=1;fontSize=14;fontStyle=0;strokeWidth=2;resizeParent=0;resizeLast=1;shadow=0;dashed=0;align=center;arcSize=4;whiteSpace=wrap;html=1;" vertex="1" parent="1">
          <mxGeometry x="580" y="469" width="160" height="100" as="geometry" />
        </mxCell>
        <mxCell id="bI6_HFmCK03Pa5-VsFxt-10" value="&lt;b&gt;skill_id&lt;span style=&quot;white-space: pre;&quot;&gt;&#x9;&lt;/span&gt;&lt;span style=&quot;white-space: pre;&quot;&gt;&#x9;&lt;/span&gt;&lt;i&gt;integer(10)&lt;/i&gt;&lt;/b&gt;&lt;div&gt;name&lt;span style=&quot;white-space: pre;&quot;&gt;&#x9;&lt;/span&gt;&lt;span style=&quot;white-space: pre;&quot;&gt;&#x9;&lt;/span&gt;&lt;i&gt;varchar(255)&lt;/i&gt;&lt;/div&gt;&lt;div&gt;proficiency&lt;span style=&quot;white-space: pre;&quot;&gt;&#x9;&lt;/span&gt;&lt;i&gt;varchar(255)&lt;/i&gt;&lt;/div&gt;" style="align=left;strokeColor=none;fillColor=none;spacingLeft=4;fontSize=12;verticalAlign=top;resizable=0;rotatable=0;part=1;html=1;" vertex="1" parent="bI6_HFmCK03Pa5-VsFxt-9">
          <mxGeometry y="41" width="160" height="59" as="geometry" />
        </mxCell>
        <mxCell id="bI6_HFmCK03Pa5-VsFxt-17" value="&lt;b&gt;Testimonial&lt;/b&gt;" style="swimlane;childLayout=stackLayout;horizontal=1;startSize=40;horizontalStack=0;rounded=1;fontSize=14;fontStyle=0;strokeWidth=2;resizeParent=0;resizeLast=1;shadow=0;dashed=0;align=center;arcSize=4;whiteSpace=wrap;html=1;" vertex="1" parent="1">
          <mxGeometry x="580" y="659" width="189" height="140" as="geometry" />
        </mxCell>
        <mxCell id="bI6_HFmCK03Pa5-VsFxt-18" value="&lt;b&gt;testimonial_id&lt;span style=&quot;white-space: pre;&quot;&gt;&#x9;&lt;/span&gt;&lt;i&gt;integer(10)&lt;/i&gt;&lt;/b&gt;&lt;div&gt;writer_name&lt;span style=&quot;white-space: pre;&quot;&gt;&#x9;&lt;/span&gt;&lt;span style=&quot;white-space: pre;&quot;&gt;&#x9;&lt;/span&gt;&lt;i&gt;varchar(255)&lt;/i&gt;&lt;/div&gt;&lt;div&gt;company&lt;span style=&quot;white-space: pre;&quot;&gt;&#x9;&lt;/span&gt;&lt;span style=&quot;white-space: pre;&quot;&gt;&#x9;&lt;/span&gt;&lt;span style=&quot;white-space: pre;&quot;&gt;&#x9;&lt;/span&gt;&lt;i&gt;varchar(255)&lt;/i&gt;&lt;/div&gt;&lt;div&gt;testimonial_text&lt;span style=&quot;white-space: pre;&quot;&gt;&#x9;&lt;/span&gt;&lt;i&gt;text&lt;/i&gt;&lt;/div&gt;&lt;div&gt;date_received&lt;span style=&quot;white-space: pre;&quot;&gt;&#x9;&lt;/span&gt;&lt;span style=&quot;white-space: pre;&quot;&gt;&#x9;&lt;/span&gt;&lt;i&gt;date&lt;/i&gt;&lt;/div&gt;" style="align=left;strokeColor=none;fillColor=none;spacingLeft=4;fontSize=12;verticalAlign=top;resizable=0;rotatable=0;part=1;html=1;" vertex="1" parent="bI6_HFmCK03Pa5-VsFxt-17">
          <mxGeometry y="40" width="189" height="100" as="geometry" />
        </mxCell>
        <mxCell id="bI6_HFmCK03Pa5-VsFxt-19" value="&lt;b&gt;Contact&lt;/b&gt;" style="swimlane;childLayout=stackLayout;horizontal=1;startSize=40;horizontalStack=0;rounded=1;fontSize=14;fontStyle=0;strokeWidth=2;resizeParent=0;resizeLast=1;shadow=0;dashed=0;align=center;arcSize=4;whiteSpace=wrap;html=1;" vertex="1" parent="1">
          <mxGeometry x="30" y="454.5" width="190" height="140" as="geometry" />
        </mxCell>
        <mxCell id="bI6_HFmCK03Pa5-VsFxt-20" value="&lt;div&gt;&lt;b&gt;contact_name&lt;span style=&quot;white-space: pre;&quot;&gt;&#x9;&lt;/span&gt;&lt;i&gt;varchar(255)&lt;/i&gt;&lt;/b&gt;&lt;/div&gt;&lt;div&gt;email&lt;span style=&quot;white-space: pre;&quot;&gt;&#x9;&lt;/span&gt;&lt;span style=&quot;white-space: pre;&quot;&gt;&#x9;&lt;/span&gt;&lt;span style=&quot;white-space: pre;&quot;&gt;&#x9;&lt;/span&gt;&lt;i&gt;varchar(255)&lt;/i&gt;&lt;/div&gt;&lt;div&gt;message&lt;span style=&quot;white-space: pre;&quot;&gt;&#x9;&lt;/span&gt;&lt;span style=&quot;white-space: pre;&quot;&gt;&#x9;&lt;/span&gt;&lt;span style=&quot;white-space: pre;&quot;&gt;&#x9;&lt;/span&gt;&lt;i&gt;text&lt;/i&gt;&lt;/div&gt;&lt;div&gt;date_sent&lt;span style=&quot;white-space: pre;&quot;&gt;&#x9;&lt;/span&gt;&lt;span style=&quot;white-space: pre;&quot;&gt;&#x9;&lt;/span&gt;&lt;i&gt;date&lt;/i&gt;&lt;/div&gt;" style="align=left;strokeColor=none;fillColor=none;spacingLeft=4;fontSize=12;verticalAlign=top;resizable=0;rotatable=0;part=1;html=1;" vertex="1" parent="bI6_HFmCK03Pa5-VsFxt-19">
          <mxGeometry y="40" width="190" height="100" as="geometry" />
        </mxCell>
        <mxCell id="bI6_HFmCK03Pa5-VsFxt-26" value="&lt;b&gt;Category&lt;/b&gt;" style="swimlane;childLayout=stackLayout;horizontal=1;startSize=40;horizontalStack=0;rounded=1;fontSize=14;fontStyle=0;strokeWidth=2;resizeParent=0;resizeLast=1;shadow=0;dashed=0;align=center;arcSize=4;whiteSpace=wrap;html=1;" vertex="1" parent="1">
          <mxGeometry x="580" y="299" width="220" height="90" as="geometry" />
        </mxCell>
        <mxCell id="bI6_HFmCK03Pa5-VsFxt-27" value="&lt;div&gt;&lt;b&gt;category_id&lt;span style=&quot;white-space: pre;&quot;&gt;&#x9;&lt;/span&gt;&lt;span style=&quot;white-space: pre;&quot;&gt;&#x9;&lt;/span&gt;&lt;span style=&quot;white-space: pre;&quot;&gt;&#x9;&lt;/span&gt;&lt;/b&gt;&lt;b style=&quot;background-color: initial;&quot;&gt;&lt;i&gt;integer(10)&lt;/i&gt;&lt;/b&gt;&lt;/div&gt;&lt;div&gt;&lt;span style=&quot;background-color: initial;&quot;&gt;name&lt;span style=&quot;white-space: pre;&quot;&gt;&#x9;&lt;/span&gt;&lt;span style=&quot;white-space: pre;&quot;&gt;&#x9;&lt;/span&gt;&lt;span style=&quot;white-space: pre;&quot;&gt;&#x9;&lt;span style=&quot;white-space: pre;&quot;&gt;&#x9;&lt;/span&gt;v&lt;/span&gt;archar&lt;/span&gt;&lt;span style=&quot;background-color: initial;&quot;&gt;&lt;i style=&quot;&quot;&gt;(255)&lt;/i&gt;&lt;/span&gt;&lt;/div&gt;" style="align=left;strokeColor=none;fillColor=none;spacingLeft=4;fontSize=12;verticalAlign=top;resizable=0;rotatable=0;part=1;html=1;" vertex="1" parent="bI6_HFmCK03Pa5-VsFxt-26">
          <mxGeometry y="40" width="220" height="50" as="geometry" />
        </mxCell>
        <mxCell id="bI6_HFmCK03Pa5-VsFxt-28" value="" style="edgeStyle=entityRelationEdgeStyle;fontSize=12;html=1;endArrow=ERmany;startArrow=ERmany;rounded=0;entryX=0;entryY=0.5;entryDx=0;entryDy=0;exitX=1;exitY=0.25;exitDx=0;exitDy=0;" edge="1" parent="1" source="bI6_HFmCK03Pa5-VsFxt-8" target="bI6_HFmCK03Pa5-VsFxt-26">
          <mxGeometry width="100" height="100" relative="1" as="geometry">
            <mxPoint x="500" y="354" as="sourcePoint" />
            <mxPoint x="530" y="389" as="targetPoint" />
          </mxGeometry>
        </mxCell>
        <mxCell id="bI6_HFmCK03Pa5-VsFxt-31" value="" style="edgeStyle=entityRelationEdgeStyle;fontSize=12;html=1;endArrow=ERmany;startArrow=ERmany;rounded=0;exitX=1;exitY=0.5;exitDx=0;exitDy=0;entryX=0;entryY=0.25;entryDx=0;entryDy=0;" edge="1" parent="1" source="bI6_HFmCK03Pa5-VsFxt-8" target="bI6_HFmCK03Pa5-VsFxt-10">
          <mxGeometry width="100" height="100" relative="1" as="geometry">
            <mxPoint x="340" y="575" as="sourcePoint" />
            <mxPoint x="570" y="524" as="targetPoint" />
          </mxGeometry>
        </mxCell>
        <mxCell id="bI6_HFmCK03Pa5-VsFxt-33" value="" style="edgeStyle=entityRelationEdgeStyle;fontSize=12;html=1;endArrow=ERoneToMany;rounded=0;exitX=1;exitY=0.75;exitDx=0;exitDy=0;entryX=0;entryY=0.25;entryDx=0;entryDy=0;" edge="1" parent="1" source="bI6_HFmCK03Pa5-VsFxt-8" target="bI6_HFmCK03Pa5-VsFxt-18">
          <mxGeometry width="100" height="100" relative="1" as="geometry">
            <mxPoint x="380" y="719" as="sourcePoint" />
            <mxPoint x="480" y="619" as="targetPoint" />
            <Array as="points">
              <mxPoint x="160" y="549" />
            </Array>
          </mxGeometry>
        </mxCell>
        <mxCell id="bI6_HFmCK03Pa5-VsFxt-35" value="" style="edgeStyle=entityRelationEdgeStyle;fontSize=12;html=1;endArrow=ERmandOne;startArrow=ERmandOne;rounded=0;exitX=1;exitY=0.5;exitDx=0;exitDy=0;entryX=0;entryY=0.25;entryDx=0;entryDy=0;" edge="1" parent="1" source="bI6_HFmCK03Pa5-VsFxt-20" target="bI6_HFmCK03Pa5-VsFxt-8">
          <mxGeometry width="100" height="100" relative="1" as="geometry">
            <mxPoint x="240" y="599" as="sourcePoint" />
            <mxPoint x="340" y="499" as="targetPoint" />
          </mxGeometry>
        </mxCell>
      </root>
    </mxGraphModel>
  </diagram>
</mxfile>
